<mxfile host="app.diagrams.net" agent="Mozilla/5.0 (Macintosh; Intel Mac OS X 10_15_7) AppleWebKit/537.36 (KHTML, like Gecko) Chrome/135.0.0.0 Safari/537.36" version="26.2.13">
  <diagram name="Page-1" id="IfU6_OW_LdqiSdA98Q13">
    <mxGraphModel dx="1334" dy="1479" grid="1" gridSize="10" guides="1" tooltips="1" connect="1" arrows="1" fold="1" page="1" pageScale="1" pageWidth="850" pageHeight="1100" math="0" shadow="0">
      <root>
        <mxCell id="0" />
        <mxCell id="1" parent="0" />
        <mxCell id="PJdJtcQqQB0Og1O0TFEI-56" value="" style="rounded=0;whiteSpace=wrap;html=1;strokeColor=none;" vertex="1" parent="1">
          <mxGeometry x="15" y="40" width="885" height="740" as="geometry" />
        </mxCell>
        <mxCell id="PJdJtcQqQB0Og1O0TFEI-1" value="" style="rounded=1;whiteSpace=wrap;html=1;fillStyle=auto;fillColor=none;strokeColor=default;dashed=1;dashPattern=8 8;strokeWidth=1;shadow=1;sketch=1;curveFitting=1;jiggle=2;" vertex="1" parent="1">
          <mxGeometry x="40" y="200" width="120" height="560" as="geometry" />
        </mxCell>
        <mxCell id="PJdJtcQqQB0Og1O0TFEI-2" value="" style="rounded=1;whiteSpace=wrap;html=1;fillStyle=hachure;fillColor=#FFB570;strokeColor=#FFB570;glass=0;shadow=1;sketch=1;curveFitting=1;jiggle=2;opacity=40;strokeWidth=2;" vertex="1" parent="1">
          <mxGeometry x="240" y="200" width="160" height="560" as="geometry" />
        </mxCell>
        <mxCell id="PJdJtcQqQB0Og1O0TFEI-3" value="" style="rounded=1;whiteSpace=wrap;html=1;fillStyle=hachure;fillColor=default;fontColor=#333333;strokeColor=#666666;shadow=1;glass=0;sketch=1;curveFitting=1;jiggle=2;strokeWidth=2;opacity=40;" vertex="1" parent="1">
          <mxGeometry x="480" y="200" width="160" height="560" as="geometry" />
        </mxCell>
        <mxCell id="PJdJtcQqQB0Og1O0TFEI-4" value="" style="rounded=1;whiteSpace=wrap;html=1;fillStyle=hachure;fillColor=#FFD966;strokeColor=#FFD966;shadow=1;gradientColor=none;glass=0;sketch=1;curveFitting=1;jiggle=2;strokeWidth=2;opacity=40;" vertex="1" parent="1">
          <mxGeometry x="720" y="200" width="160" height="560" as="geometry" />
        </mxCell>
        <mxCell id="PJdJtcQqQB0Og1O0TFEI-5" value="&lt;font style=&quot;font-size: 14px;&quot;&gt;&lt;b&gt;Sources&lt;/b&gt;&lt;/font&gt;" style="rounded=0;whiteSpace=wrap;html=1;strokeColor=none;fillColor=default;" vertex="1" parent="1">
          <mxGeometry x="65" y="180" width="70" height="40" as="geometry" />
        </mxCell>
        <mxCell id="PJdJtcQqQB0Og1O0TFEI-6" value="&lt;b&gt;&lt;font style=&quot;font-size: 14px;&quot;&gt;Bronze Layer&lt;/font&gt;&lt;/b&gt;" style="rounded=0;whiteSpace=wrap;html=1;fillColor=#ffe6cc;strokeColor=#d79b00;gradientColor=none;glass=0;shadow=1;fontFamily=Comic Sans MS;sketch=1;curveFitting=1;jiggle=2;" vertex="1" parent="1">
          <mxGeometry x="240" y="120" width="160" height="40" as="geometry" />
        </mxCell>
        <mxCell id="PJdJtcQqQB0Og1O0TFEI-8" value="&lt;b&gt;&lt;font style=&quot;font-size: 14px;&quot;&gt;Silver Layer&lt;/font&gt;&lt;/b&gt;" style="rounded=0;whiteSpace=wrap;html=1;glass=0;strokeColor=#666666;fillColor=#f5f5f5;fontColor=#333333;shadow=1;sketch=1;curveFitting=1;jiggle=2;fontFamily=Comic Sans MS;" vertex="1" parent="1">
          <mxGeometry x="480" y="120" width="160" height="40" as="geometry" />
        </mxCell>
        <mxCell id="PJdJtcQqQB0Og1O0TFEI-9" value="&lt;font style=&quot;font-size: 14px;&quot;&gt;&lt;b&gt;Gold Layer&lt;/b&gt;&lt;/font&gt;" style="rounded=0;whiteSpace=wrap;html=1;glass=0;strokeColor=#d6b656;fillColor=#fff2cc;shadow=1;sketch=1;curveFitting=1;jiggle=2;fontFamily=Comic Sans MS;" vertex="1" parent="1">
          <mxGeometry x="720" y="120" width="160" height="40" as="geometry" />
        </mxCell>
        <mxCell id="PJdJtcQqQB0Og1O0TFEI-10" value="" style="image;aspect=fixed;html=1;points=[];align=center;fontSize=12;image=img/lib/azure2/general/Folder_Blank.svg;shadow=1;" vertex="1" parent="1">
          <mxGeometry x="56" y="310" width="69" height="56.00000000000001" as="geometry" />
        </mxCell>
        <mxCell id="PJdJtcQqQB0Og1O0TFEI-11" value="" style="shape=image;html=1;verticalAlign=top;verticalLabelPosition=bottom;labelBackgroundColor=#ffffff;imageAspect=0;aspect=fixed;image=https://cdn4.iconfinder.com/data/icons/48-bubbles/48/12.File-128.png;shadow=1;imageBorder=none;imageBackground=none;" vertex="1" parent="1">
          <mxGeometry x="106" y="348" width="38" height="38" as="geometry" />
        </mxCell>
        <mxCell id="PJdJtcQqQB0Og1O0TFEI-12" value="" style="image;aspect=fixed;html=1;points=[];align=center;fontSize=12;image=img/lib/azure2/general/Folder_Blank.svg;shadow=1;" vertex="1" parent="1">
          <mxGeometry x="56" y="592" width="69" height="56.00000000000001" as="geometry" />
        </mxCell>
        <mxCell id="PJdJtcQqQB0Og1O0TFEI-13" value="" style="shape=image;html=1;verticalAlign=top;verticalLabelPosition=bottom;labelBackgroundColor=#ffffff;imageAspect=0;aspect=fixed;image=https://cdn4.iconfinder.com/data/icons/48-bubbles/48/12.File-128.png;shadow=1;imageBorder=none;imageBackground=none;" vertex="1" parent="1">
          <mxGeometry x="106" y="630" width="38" height="38" as="geometry" />
        </mxCell>
        <mxCell id="PJdJtcQqQB0Og1O0TFEI-14" value="&lt;font style=&quot;font-size: 13px;&quot;&gt;CRM&lt;/font&gt;" style="dashed=0;html=1;fillColor=none;strokeColor=none;align=center;rounded=1;arcSize=10;fontColor=#596780;fontStyle=1;fontSize=11;shadow=0" vertex="1" parent="1">
          <mxGeometry x="56" y="328" width="60" height="20" as="geometry" />
        </mxCell>
        <mxCell id="PJdJtcQqQB0Og1O0TFEI-15" value="&lt;font style=&quot;font-size: 13px;&quot;&gt;ERP&lt;/font&gt;" style="dashed=0;html=1;fillColor=none;strokeColor=none;align=center;rounded=1;arcSize=10;fontColor=#596780;fontStyle=1;fontSize=11;shadow=0" vertex="1" parent="1">
          <mxGeometry x="56" y="608" width="60" height="20" as="geometry" />
        </mxCell>
        <mxCell id="PJdJtcQqQB0Og1O0TFEI-16" value="&lt;font style=&quot;font-size: 13px;&quot;&gt;crm_sales_details&lt;/font&gt;" style="rounded=0;whiteSpace=wrap;html=1;fillColor=#ffe6cc;strokeColor=#d79b00;gradientDirection=south;gradientColor=#BF6000;glass=0;shadow=1;sketch=1;curveFitting=1;jiggle=2;fontFamily=Comic Sans MS;" vertex="1" parent="1">
          <mxGeometry x="260" y="240" width="120" height="40" as="geometry" />
        </mxCell>
        <mxCell id="PJdJtcQqQB0Og1O0TFEI-17" value="&lt;font style=&quot;font-size: 13px;&quot;&gt;crm_cust_info&lt;/font&gt;" style="rounded=0;whiteSpace=wrap;html=1;fillColor=#ffe6cc;strokeColor=#d79b00;gradientDirection=south;gradientColor=#BF6000;glass=0;shadow=1;sketch=1;curveFitting=1;jiggle=2;fontFamily=Comic Sans MS;" vertex="1" parent="1">
          <mxGeometry x="260" y="320" width="120" height="40" as="geometry" />
        </mxCell>
        <mxCell id="PJdJtcQqQB0Og1O0TFEI-18" value="&lt;span style=&quot;font-size: 13px;&quot;&gt;crm_prd_info&lt;/span&gt;" style="rounded=0;whiteSpace=wrap;html=1;fillColor=#ffe6cc;strokeColor=#d79b00;gradientDirection=south;gradientColor=#BF6000;glass=0;shadow=1;sketch=1;curveFitting=1;jiggle=2;fontFamily=Comic Sans MS;" vertex="1" parent="1">
          <mxGeometry x="260" y="398" width="120" height="40" as="geometry" />
        </mxCell>
        <mxCell id="PJdJtcQqQB0Og1O0TFEI-19" value="&lt;font style=&quot;font-size: 13px;&quot;&gt;erp_cust_az12&lt;/font&gt;" style="rounded=0;whiteSpace=wrap;html=1;fillColor=#ffe6cc;strokeColor=#d79b00;gradientDirection=south;gradientColor=#BF6000;glass=0;shadow=1;sketch=1;curveFitting=1;jiggle=2;fontFamily=Comic Sans MS;" vertex="1" parent="1">
          <mxGeometry x="260" y="520" width="120" height="40" as="geometry" />
        </mxCell>
        <mxCell id="PJdJtcQqQB0Og1O0TFEI-20" value="&lt;font&gt;erp_loc_a101&lt;/font&gt;" style="rounded=0;whiteSpace=wrap;html=1;fillColor=#ffe6cc;strokeColor=#d79b00;gradientDirection=south;gradientColor=#BF6000;glass=0;shadow=1;sketch=1;curveFitting=1;jiggle=2;fontFamily=Comic Sans MS;" vertex="1" parent="1">
          <mxGeometry x="260" y="602" width="120" height="40" as="geometry" />
        </mxCell>
        <mxCell id="PJdJtcQqQB0Og1O0TFEI-21" value="&lt;font style=&quot;font-size: 13px;&quot;&gt;crm_px_cat_g1v2&lt;/font&gt;" style="rounded=0;whiteSpace=wrap;html=1;fillColor=#ffe6cc;strokeColor=#d79b00;gradientDirection=south;gradientColor=#BF6000;glass=0;shadow=1;sketch=1;curveFitting=1;jiggle=2;fontFamily=Comic Sans MS;" vertex="1" parent="1">
          <mxGeometry x="260" y="682" width="120" height="40" as="geometry" />
        </mxCell>
        <mxCell id="PJdJtcQqQB0Og1O0TFEI-23" value="" style="endArrow=classic;html=1;rounded=1;entryX=0;entryY=0.5;entryDx=0;entryDy=0;exitX=0.975;exitY=0.526;exitDx=0;exitDy=0;exitPerimeter=0;sketch=1;curveFitting=1;jiggle=2;flowAnimation=0;shadow=1;jumpSize=10;jumpStyle=none;curved=0;" edge="1" parent="1" source="PJdJtcQqQB0Og1O0TFEI-10" target="PJdJtcQqQB0Og1O0TFEI-17">
          <mxGeometry width="50" height="50" relative="1" as="geometry">
            <mxPoint x="150" y="339.5" as="sourcePoint" />
            <mxPoint x="210" y="340" as="targetPoint" />
            <Array as="points">
              <mxPoint x="190" y="340" />
            </Array>
          </mxGeometry>
        </mxCell>
        <mxCell id="PJdJtcQqQB0Og1O0TFEI-24" value="" style="endArrow=classic;html=1;rounded=0;entryX=0;entryY=0.5;entryDx=0;entryDy=0;sketch=1;curveFitting=1;jiggle=2;flowAnimation=0;shadow=1;jumpSize=10;jumpStyle=none;" edge="1" parent="1" target="PJdJtcQqQB0Og1O0TFEI-16">
          <mxGeometry width="50" height="50" relative="1" as="geometry">
            <mxPoint x="190" y="340" as="sourcePoint" />
            <mxPoint x="240" y="290" as="targetPoint" />
            <Array as="points">
              <mxPoint x="190" y="260" />
            </Array>
          </mxGeometry>
        </mxCell>
        <mxCell id="PJdJtcQqQB0Og1O0TFEI-25" value="" style="endArrow=classic;html=1;rounded=0;entryX=0.003;entryY=0.568;entryDx=0;entryDy=0;entryPerimeter=0;sketch=1;curveFitting=1;jiggle=2;flowAnimation=0;shadow=1;jumpSize=10;jumpStyle=none;" edge="1" parent="1" target="PJdJtcQqQB0Og1O0TFEI-18">
          <mxGeometry width="50" height="50" relative="1" as="geometry">
            <mxPoint x="190" y="340" as="sourcePoint" />
            <mxPoint x="230" y="420" as="targetPoint" />
            <Array as="points">
              <mxPoint x="190" y="420" />
            </Array>
          </mxGeometry>
        </mxCell>
        <mxCell id="PJdJtcQqQB0Og1O0TFEI-26" value="" style="endArrow=classic;html=1;rounded=1;entryX=0;entryY=0.5;entryDx=0;entryDy=0;exitX=0.991;exitY=0.529;exitDx=0;exitDy=0;exitPerimeter=0;sketch=1;curveFitting=1;jiggle=2;flowAnimation=0;shadow=1;jumpSize=10;jumpStyle=gap;curved=0;" edge="1" parent="1" source="PJdJtcQqQB0Og1O0TFEI-12">
          <mxGeometry width="50" height="50" relative="1" as="geometry">
            <mxPoint x="180" y="622" as="sourcePoint" />
            <mxPoint x="260" y="621.5" as="targetPoint" />
            <Array as="points">
              <mxPoint x="190" y="621.5" />
            </Array>
          </mxGeometry>
        </mxCell>
        <mxCell id="PJdJtcQqQB0Og1O0TFEI-27" value="" style="endArrow=classic;html=1;rounded=0;entryX=0;entryY=0.5;entryDx=0;entryDy=0;sketch=1;curveFitting=1;jiggle=2;flowAnimation=0;shadow=1;jumpSize=10;jumpStyle=none;" edge="1" parent="1">
          <mxGeometry width="50" height="50" relative="1" as="geometry">
            <mxPoint x="190" y="621.5" as="sourcePoint" />
            <mxPoint x="260" y="541.5" as="targetPoint" />
            <Array as="points">
              <mxPoint x="190" y="541.5" />
            </Array>
          </mxGeometry>
        </mxCell>
        <mxCell id="PJdJtcQqQB0Og1O0TFEI-28" value="" style="endArrow=classic;html=1;rounded=0;entryX=0.003;entryY=0.568;entryDx=0;entryDy=0;entryPerimeter=0;sketch=1;curveFitting=1;jiggle=2;flowAnimation=0;shadow=1;jumpSize=10;jumpStyle=none;" edge="1" parent="1">
          <mxGeometry width="50" height="50" relative="1" as="geometry">
            <mxPoint x="190" y="621.5" as="sourcePoint" />
            <mxPoint x="260" y="702.5" as="targetPoint" />
            <Array as="points">
              <mxPoint x="190" y="701.5" />
            </Array>
          </mxGeometry>
        </mxCell>
        <mxCell id="PJdJtcQqQB0Og1O0TFEI-29" value="" style="endArrow=classic;html=1;rounded=0;exitX=1;exitY=0.5;exitDx=0;exitDy=0;fontFamily=Comic Sans MS;sketch=1;curveFitting=1;jiggle=2;shadow=1;" edge="1" parent="1" source="PJdJtcQqQB0Og1O0TFEI-16" target="PJdJtcQqQB0Og1O0TFEI-30">
          <mxGeometry width="50" height="50" relative="1" as="geometry">
            <mxPoint x="480" y="470" as="sourcePoint" />
            <mxPoint x="440" y="260" as="targetPoint" />
          </mxGeometry>
        </mxCell>
        <mxCell id="PJdJtcQqQB0Og1O0TFEI-30" value="&lt;font style=&quot;font-size: 13px;&quot;&gt;crm_sales_details&lt;/font&gt;" style="rounded=0;whiteSpace=wrap;html=1;fillColor=#f5f5f5;strokeColor=#666666;gradientDirection=south;fontColor=#333333;glass=0;shadow=1;sketch=1;curveFitting=1;jiggle=2;fontFamily=Comic Sans MS;" vertex="1" parent="1">
          <mxGeometry x="500" y="240" width="120" height="40" as="geometry" />
        </mxCell>
        <mxCell id="PJdJtcQqQB0Og1O0TFEI-31" value="&lt;font style=&quot;font-size: 13px;&quot;&gt;crm_cust_info&lt;/font&gt;" style="rounded=0;whiteSpace=wrap;html=1;fillColor=#f5f5f5;strokeColor=#666666;gradientDirection=south;fontColor=#333333;glass=0;shadow=1;sketch=1;curveFitting=1;jiggle=2;fontFamily=Comic Sans MS;" vertex="1" parent="1">
          <mxGeometry x="500" y="320" width="120" height="40" as="geometry" />
        </mxCell>
        <mxCell id="PJdJtcQqQB0Og1O0TFEI-32" value="&lt;span style=&quot;font-size: 13px;&quot;&gt;crm_prd_info&lt;/span&gt;" style="rounded=0;whiteSpace=wrap;html=1;fillColor=#f5f5f5;strokeColor=#666666;gradientDirection=south;fontColor=#333333;glass=0;shadow=1;sketch=1;curveFitting=1;jiggle=2;fontFamily=Comic Sans MS;" vertex="1" parent="1">
          <mxGeometry x="500" y="398" width="120" height="40" as="geometry" />
        </mxCell>
        <mxCell id="PJdJtcQqQB0Og1O0TFEI-33" value="&lt;font style=&quot;font-size: 13px;&quot;&gt;erp_cust_az12&lt;/font&gt;" style="rounded=0;whiteSpace=wrap;html=1;fillColor=#f5f5f5;strokeColor=#666666;gradientDirection=south;fontColor=#333333;glass=0;shadow=1;sketch=1;curveFitting=1;jiggle=2;fontFamily=Comic Sans MS;" vertex="1" parent="1">
          <mxGeometry x="500" y="520" width="120" height="40" as="geometry" />
        </mxCell>
        <mxCell id="PJdJtcQqQB0Og1O0TFEI-34" value="erp_loc_a101" style="rounded=0;whiteSpace=wrap;html=1;fillColor=#f5f5f5;strokeColor=#666666;gradientDirection=south;fontColor=#333333;glass=0;shadow=1;sketch=1;curveFitting=1;jiggle=2;fontFamily=Comic Sans MS;" vertex="1" parent="1">
          <mxGeometry x="500" y="602" width="120" height="40" as="geometry" />
        </mxCell>
        <mxCell id="PJdJtcQqQB0Og1O0TFEI-35" value="&lt;font style=&quot;font-size: 13px;&quot;&gt;crm_px_cat_g1v2&lt;/font&gt;" style="rounded=0;whiteSpace=wrap;html=1;fillColor=#f5f5f5;strokeColor=#666666;gradientDirection=south;fontColor=#333333;glass=0;shadow=1;sketch=1;curveFitting=1;jiggle=2;fontFamily=Comic Sans MS;" vertex="1" parent="1">
          <mxGeometry x="500" y="682" width="120" height="40" as="geometry" />
        </mxCell>
        <mxCell id="PJdJtcQqQB0Og1O0TFEI-36" value="" style="endArrow=classic;html=1;rounded=0;exitX=1;exitY=0.5;exitDx=0;exitDy=0;fontFamily=Comic Sans MS;sketch=1;curveFitting=1;jiggle=2;shadow=1;" edge="1" parent="1">
          <mxGeometry width="50" height="50" relative="1" as="geometry">
            <mxPoint x="380" y="339.75" as="sourcePoint" />
            <mxPoint x="500" y="339.75" as="targetPoint" />
          </mxGeometry>
        </mxCell>
        <mxCell id="PJdJtcQqQB0Og1O0TFEI-37" value="" style="endArrow=classic;html=1;rounded=0;exitX=1;exitY=0.5;exitDx=0;exitDy=0;fontFamily=Comic Sans MS;sketch=1;curveFitting=1;jiggle=2;curved=1;shadow=1;" edge="1" parent="1">
          <mxGeometry width="50" height="50" relative="1" as="geometry">
            <mxPoint x="380" y="420" as="sourcePoint" />
            <mxPoint x="500" y="420" as="targetPoint" />
          </mxGeometry>
        </mxCell>
        <mxCell id="PJdJtcQqQB0Og1O0TFEI-38" value="" style="endArrow=classic;html=1;rounded=0;exitX=1;exitY=0.5;exitDx=0;exitDy=0;fontFamily=Comic Sans MS;sketch=1;curveFitting=1;jiggle=2;shadow=1;" edge="1" parent="1">
          <mxGeometry width="50" height="50" relative="1" as="geometry">
            <mxPoint x="380" y="539.75" as="sourcePoint" />
            <mxPoint x="500" y="539.75" as="targetPoint" />
          </mxGeometry>
        </mxCell>
        <mxCell id="PJdJtcQqQB0Og1O0TFEI-39" value="" style="endArrow=classic;html=1;rounded=1;exitX=1;exitY=0.5;exitDx=0;exitDy=0;fontFamily=Comic Sans MS;sketch=1;curveFitting=1;jiggle=2;strokeColor=default;curved=0;shadow=1;" edge="1" parent="1">
          <mxGeometry width="50" height="50" relative="1" as="geometry">
            <mxPoint x="380" y="621.75" as="sourcePoint" />
            <mxPoint x="500" y="621.75" as="targetPoint" />
          </mxGeometry>
        </mxCell>
        <mxCell id="PJdJtcQqQB0Og1O0TFEI-40" value="" style="endArrow=classic;html=1;rounded=0;exitX=1;exitY=0.5;exitDx=0;exitDy=0;fontFamily=Comic Sans MS;sketch=1;curveFitting=1;jiggle=2;shadow=1;strokeColor=default;curved=1;" edge="1" parent="1">
          <mxGeometry width="50" height="50" relative="1" as="geometry">
            <mxPoint x="380" y="701.75" as="sourcePoint" />
            <mxPoint x="500" y="701.75" as="targetPoint" />
          </mxGeometry>
        </mxCell>
        <mxCell id="PJdJtcQqQB0Og1O0TFEI-41" value="&lt;span style=&quot;font-size: 13px;&quot;&gt;fact_sales&lt;/span&gt;" style="rounded=0;whiteSpace=wrap;html=1;fillColor=#fff2cc;strokeColor=#d6b656;gradientDirection=south;glass=0;shadow=1;sketch=1;curveFitting=1;jiggle=2;fontFamily=Comic Sans MS;" vertex="1" parent="1">
          <mxGeometry x="740" y="240" width="120" height="40" as="geometry" />
        </mxCell>
        <mxCell id="PJdJtcQqQB0Og1O0TFEI-42" value="&lt;font style=&quot;font-size: 13px;&quot;&gt;dim_customers&lt;/font&gt;" style="rounded=0;whiteSpace=wrap;html=1;fillColor=#fff2cc;strokeColor=#d6b656;gradientDirection=south;glass=0;shadow=1;sketch=1;curveFitting=1;jiggle=2;fontFamily=Comic Sans MS;" vertex="1" parent="1">
          <mxGeometry x="740" y="460" width="120" height="40" as="geometry" />
        </mxCell>
        <mxCell id="PJdJtcQqQB0Og1O0TFEI-43" value="&lt;span style=&quot;font-size: 13px;&quot;&gt;dim_products&lt;/span&gt;" style="rounded=0;whiteSpace=wrap;html=1;fillColor=#fff2cc;strokeColor=#d6b656;gradientDirection=south;glass=0;shadow=1;sketch=1;curveFitting=1;jiggle=2;fontFamily=Comic Sans MS;" vertex="1" parent="1">
          <mxGeometry x="740" y="568" width="120" height="40" as="geometry" />
        </mxCell>
        <mxCell id="PJdJtcQqQB0Og1O0TFEI-44" value="" style="endArrow=classic;html=1;rounded=0;exitX=1;exitY=0.5;exitDx=0;exitDy=0;entryX=0;entryY=0.5;entryDx=0;entryDy=0;fontFamily=Comic Sans MS;sketch=1;curveFitting=1;jiggle=2;shadow=1;" edge="1" parent="1" source="PJdJtcQqQB0Og1O0TFEI-30" target="PJdJtcQqQB0Og1O0TFEI-41">
          <mxGeometry width="50" height="50" relative="1" as="geometry">
            <mxPoint x="670" y="560" as="sourcePoint" />
            <mxPoint x="720" y="510" as="targetPoint" />
          </mxGeometry>
        </mxCell>
        <mxCell id="PJdJtcQqQB0Og1O0TFEI-45" value="" style="endArrow=classic;html=1;rounded=0;exitX=1;exitY=0.5;exitDx=0;exitDy=0;entryX=0;entryY=0.5;entryDx=0;entryDy=0;fontFamily=Comic Sans MS;sketch=1;curveFitting=1;jiggle=2;curved=1;shadow=1;" edge="1" parent="1" source="PJdJtcQqQB0Og1O0TFEI-31" target="PJdJtcQqQB0Og1O0TFEI-42">
          <mxGeometry width="50" height="50" relative="1" as="geometry">
            <mxPoint x="630" y="270" as="sourcePoint" />
            <mxPoint x="750" y="270" as="targetPoint" />
          </mxGeometry>
        </mxCell>
        <mxCell id="PJdJtcQqQB0Og1O0TFEI-46" value="" style="endArrow=classic;html=1;rounded=0;exitX=1;exitY=0.5;exitDx=0;exitDy=0;entryX=0;entryY=0.5;entryDx=0;entryDy=0;fontFamily=Comic Sans MS;sketch=1;curveFitting=1;jiggle=2;curved=1;shadow=1;" edge="1" parent="1" source="PJdJtcQqQB0Og1O0TFEI-32" target="PJdJtcQqQB0Og1O0TFEI-43">
          <mxGeometry width="50" height="50" relative="1" as="geometry">
            <mxPoint x="640" y="280" as="sourcePoint" />
            <mxPoint x="760" y="280" as="targetPoint" />
          </mxGeometry>
        </mxCell>
        <mxCell id="PJdJtcQqQB0Og1O0TFEI-47" value="" style="endArrow=classic;html=1;rounded=0;exitX=1;exitY=0.5;exitDx=0;exitDy=0;entryX=0;entryY=0.5;entryDx=0;entryDy=0;fontFamily=Comic Sans MS;sketch=1;curveFitting=1;jiggle=2;shadow=1;jumpStyle=gap;jumpSize=6;" edge="1" parent="1" source="PJdJtcQqQB0Og1O0TFEI-34" target="PJdJtcQqQB0Og1O0TFEI-42">
          <mxGeometry width="50" height="50" relative="1" as="geometry">
            <mxPoint x="650" y="290" as="sourcePoint" />
            <mxPoint x="770" y="290" as="targetPoint" />
          </mxGeometry>
        </mxCell>
        <mxCell id="PJdJtcQqQB0Og1O0TFEI-48" value="" style="endArrow=classic;html=1;rounded=0;exitX=1;exitY=0.5;exitDx=0;exitDy=0;entryX=0;entryY=0.5;entryDx=0;entryDy=0;fontFamily=Comic Sans MS;sketch=1;curveFitting=1;jiggle=2;shadow=1;jumpStyle=gap;jumpSize=6;" edge="1" parent="1" source="PJdJtcQqQB0Og1O0TFEI-33" target="PJdJtcQqQB0Og1O0TFEI-42">
          <mxGeometry width="50" height="50" relative="1" as="geometry">
            <mxPoint x="660" y="300" as="sourcePoint" />
            <mxPoint x="780" y="300" as="targetPoint" />
          </mxGeometry>
        </mxCell>
        <mxCell id="PJdJtcQqQB0Og1O0TFEI-49" value="" style="endArrow=classic;html=1;rounded=0;exitX=1;exitY=0.5;exitDx=0;exitDy=0;entryX=0;entryY=0.5;entryDx=0;entryDy=0;fontFamily=Comic Sans MS;sketch=1;curveFitting=1;jiggle=2;shadow=1;" edge="1" parent="1" source="PJdJtcQqQB0Og1O0TFEI-35" target="PJdJtcQqQB0Og1O0TFEI-43">
          <mxGeometry width="50" height="50" relative="1" as="geometry">
            <mxPoint x="670" y="310" as="sourcePoint" />
            <mxPoint x="790" y="310" as="targetPoint" />
          </mxGeometry>
        </mxCell>
        <mxCell id="PJdJtcQqQB0Og1O0TFEI-54" value="&lt;font style=&quot;font-size: 16px;&quot;&gt;&lt;b&gt;Data Flow&lt;/b&gt;&lt;/font&gt;" style="html=1;labelBackgroundColor=none;textShadow=1;spacingTop=0;spacing=2;whiteSpace=wrap;fontFamily=Courier New;fillColor=none;strokeColor=none;" vertex="1" parent="1">
          <mxGeometry x="240" y="50" width="370" height="60" as="geometry" />
        </mxCell>
        <mxCell id="PJdJtcQqQB0Og1O0TFEI-55" value="" style="endArrow=none;html=1;rounded=0;" edge="1" parent="1">
          <mxGeometry width="50" height="50" relative="1" as="geometry">
            <mxPoint x="40" y="100" as="sourcePoint" />
            <mxPoint x="880" y="100" as="targetPoint" />
          </mxGeometry>
        </mxCell>
      </root>
    </mxGraphModel>
  </diagram>
</mxfile>
